PathFileType	4	(X/Y/Z)	Patient4_TMGait_0pt5_01_left_07.trc.trc
DataRate	CameraRate	NumFrames	NumMarkers	Units	OrigDataRate	OrigDataStartFrame	OrigNumFrames
74.468085106383	74.468085106383	4	33	mm	74.468085106383	1	       141
Frame#	Time	L.ASIS			Sacral			L.Shoulder			Chest			R.Shoulder			Neck			R.ASIS			R.Thigh.Superior			R.Thigh.Lateral			R.Thigh.Inferior			R.Patella			L.Thigh.Superior			L.Thigh.Lateral			L.Thigh.Inferior			L.Patella			L.Shank.Superior			L.Shank.Lateral			L.Shank.Inferior			R.Shank.Superior			R.Shank.Lateral			R.Shank.Inferior			R.Heel			R.Midfoot.Superior			R.Midfoot.Lateral			R.Toe			L.Heel			L.Midfoot.Lateral			L.Midfoot.Superior			L.Toe			L.Elbow			L.Wrist			R.Elbow			R.Wrist			
		X1	Y1	Z1	X2	Y2	Z2	X3	Y3	Z3	X4	Y4	Z4	X5	Y5	Z5	X6	Y6	Z6	X7	Y7	Z7	X8	Y8	Z8	X9	Y9	Z9	X10	Y10	Z10	X11	Y11	Z11	X12	Y12	Z12	X13	Y13	Z13	X14	Y14	Z14	X15	Y15	Z15	X16	Y16	Z16	X17	Y17	Z17	X18	Y18	Z18	X19	Y19	Z19	X20	Y20	Z20	X21	Y21	Z21	X22	Y22	Z22	X23	Y23	Z23	X24	Y24	Z24	X25	Y25	Z25	X26	Y26	Z26	X27	Y27	Z27	X28	Y28	Z28	X29	Y29	Z29	X30	Y30	Z30	X31	Y31	Z31	X32	Y32	Z32	X33	Y33	Z33	

1	9.400000000000	666.426969540768	968.280237668186	369.321439785153	470.190706208180	1012.878423833425	546.731031182569	624.420366381162	1442.850302145314	355.496037444858	744.231441839784	1369.011613510376	503.609137660647	679.241149102683	1442.745894527629	686.948683419136	643.072175533748	1501.697739444986	505.573762418316	706.287683365775	944.591967587708	640.273746708873	727.115297580253	737.503093480872	607.042772435393	638.028076033862	634.432206275001	668.045755901376	704.345520619581	577.244294441823	583.516530145782	695.819989427028	490.154980294949	585.774848458248	752.135164392542	788.498995719064	392.170151814166	704.011093154447	662.114930186180	316.717387062491	812.258954538719	601.006391707994	368.342913933865	827.449679761976	511.754031088147	360.756734659729	766.846352834659	440.876428109402	357.502969797405	628.976634113465	383.584193774798	313.636455044837	632.422744280273	253.705066369965	369.488527531781	664.796924391042	403.705534247715	591.144705701946	590.850681137276	302.053280467240	651.874135966003	625.026344631693	207.529452098295	584.137782442680	480.530274911371	45.840295235114	553.319732050891	655.187688130744	97.149306998982	583.549406045520	567.010271155001	36.272640542589	623.231435988318	774.854188178258	39.617404050661	604.330136311810	449.758359523499	172.852527963836	413.614534693587	507.811329953563	129.048250830243	332.558769456524	612.797161521414	146.324457701709	348.664812248640	698.444605912881	39.650989930830	322.003568213346	513.329715872401	1103.077893643404	251.920817141158	519.445019854972	842.913994541101	245.930602719770	721.036538908861	1126.197254734400	848.053512531560	971.763747225053	1101.878212466109	822.890280683842	
2	9.413428571429	665.042675851911	968.551082533021	369.459790458267	469.598727469037	1013.172468355408	547.742027535618	623.817372512522	1443.092485705371	356.515753566496	744.199269750692	1368.771704637200	503.904875472508	680.394271873492	1442.518900430657	687.641978634640	643.315055994720	1501.718518158091	506.535533750592	705.792913722130	944.380324649990	640.298094161083	725.472484898890	737.251498785812	606.890774171658	636.293589530233	634.429279556275	668.373482928373	702.110050446015	577.003582930989	583.684284541603	693.241259271904	489.953742471601	586.086583090238	751.382387689693	789.715443134680	392.214519792729	703.907988218987	662.893485267117	316.909600765654	812.156583369493	602.338193376697	368.797827963931	828.283312443148	513.881013375283	361.061839542904	769.854601070167	442.080493353519	357.721457992224	634.267570306137	380.050593360986	313.862816257041	642.627185715318	250.380610631899	369.416270269179	661.960912154628	403.598152723970	591.446124654868	587.734204048230	302.172765161586	652.276967051246	621.602816367994	207.563978017581	584.422947244395	476.705316206215	46.090709445338	553.518619546876	651.422536572585	97.155594579148	583.723674840086	563.190785249242	36.293559878093	623.336927580839	771.003912419204	39.524429416860	604.356995220726	463.619252655132	162.343324800837	413.632865906317	523.020661473806	121.421930029023	332.259531633037	627.011615664131	142.823736101542	348.306824792372	716.636993739926	40.088765921411	320.972441795019	509.335822510587	1104.497062337852	253.713893198024	513.829862255743	844.221441383146	248.125904750578	726.495415248473	1126.417892298844	847.887251737436	977.319587364303	1106.899367683850	821.669950620513	
3	9.426857142857	663.409855747513	968.791132478888	369.576574765765	468.870058340808	1013.465427696847	548.900928101149	623.107558889699	1443.363742402534	357.742493850401	744.154117652433	1368.444274113454	504.262860892751	681.729656195923	1442.150177980268	688.481778718808	643.605746416214	1501.688978090038	507.714017583652	705.204606926595	944.104112376437	640.297205539458	723.546990689089	736.921480622757	606.743394298699	634.227599594512	634.387055178522	668.767146556390	699.456819283592	576.675273188153	583.909288747572	690.145832359393	489.664613441457	586.468724143527	750.283811389723	790.886924445924	392.264129401829	703.510693821643	663.589004820480	317.115653506927	811.606170079501	603.584720583442	369.515633935307	828.878280586901	516.238591292683	361.565349037627	773.255729163063	443.456145283779	358.006926223459	640.905852459358	375.586316425244	314.026786451495	655.423198004770	246.462949797259	369.238797175996	658.534341821416	403.423382611050	591.809978124983	583.936411526991	302.286503981625	652.751264448213	617.396229412224	207.565557831389	584.755326598631	471.967534548266	46.382668600575	553.754635590627	646.761422002644	97.163933434796	583.936525515675	558.459579308436	36.313819467202	623.467859107024	766.241223388188	39.414297454539	604.403002600281	481.446537522263	149.621101758802	413.418546290468	542.432784738331	112.391379235431	331.717293676068	644.918979432549	138.882090857318	347.783232562727	739.296386750626	41.308326977385	319.729730278155	504.685053168781	1106.159178021558	255.862605919542	507.228209560291	845.758784821860	250.813345625125	733.154353410720	1126.596996872897	847.508081851152	984.020883859973	1112.784678229701	820.014572769564	
4	9.440285714286	661.593498836232	968.945892838355	369.645924100671	468.024543193763	1013.709184110424	550.132664240718	622.318362337379	1443.624922865664	359.124678006577	744.086753701760	1368.006501458842	504.664777420144	683.169878051888	1441.597900092174	689.429986753073	643.925184651179	1501.569043519228	509.065914588924	704.534882167811	943.749427960476	640.250552495655	721.408057509783	736.498774507161	606.609162585116	631.884328670185	634.282401665546	669.196747017872	696.464835464746	576.245496028880	584.177706073611	686.619285768969	489.272340464526	586.895082261664	748.798608961191	791.851762906162	392.304014539300	702.715617491723	664.082029289648	317.302477854580	810.477322335576	604.573433149020	370.485143725654	829.064996792717	518.668801572677	362.275236820815	776.845269984653	444.938791439186	358.344338817393	648.755070491122	370.310858189748	314.073023363106	670.519978798663	242.177928188180	368.927907373683	654.604811887627	403.163354477944	592.207947712056	579.548776369338	302.373907896784	653.260421805039	612.498470508080	207.516128166620	585.106005052261	466.414772666437	46.696744881077	554.008059403504	641.295739362968	97.171210484863	584.170969215606	552.912783353283	36.330927301908	623.611692155697	760.662597865605	39.291483740449	604.463042014008	502.988562216691	135.215400256800	412.892381095475	565.730144142886	102.412331276148	330.895368202207	666.143331438086	134.798911598676	347.088261700346	765.847725985729	43.556960490297	318.353913403122	499.593743619020	1107.970326609187	258.272749906974	499.931306129961	847.441260932404	253.902935305169	740.795864640236	1126.676680856716	846.839167746755	991.625442379219	1119.241417695843	817.892586389335	
